<svg version="1.2" xmlns="http://www.w3.org/2000/svg" viewBox="0 0 753 1000" width="753" height="1000">
	<title>3815058-ai</title>
	<defs>
		<linearGradient id="g1" x1="55.4" y1="713.5" x2="55.4" y2="660.8" gradientUnits="userSpaceOnUse">
			<stop offset="0" stop-color="#fefefe"/>
			<stop offset="1" stop-color="#00a4a8"/>
		</linearGradient>
		<linearGradient id="g2" x1="266.5" y1="264" x2="611.4" y2="455.9" gradientUnits="userSpaceOnUse">
			<stop offset="0" stop-color="#00a4a8"/>
			<stop offset="1" stop-color="#062949"/>
		</linearGradient>
		<linearGradient id="g3" x1="306.4" y1="661.7" x2="306.4" y2="640.6" gradientUnits="userSpaceOnUse">
			<stop offset="0" stop-color="#fefefe"/>
			<stop offset="1" stop-color="#062949"/>
		</linearGradient>
		<linearGradient id="g4" x1="498.9" y1="452.7" x2="548.3" y2="452.7" gradientUnits="userSpaceOnUse">
			<stop offset="0" stop-color="#00a4a8"/>
			<stop offset="1" stop-color="#fefefe"/>
		</linearGradient>
	</defs>
	<style>
		.s0 { fill: #ffffff } 
		.s1 { opacity: .7;fill: #035aa6 } 
		.s2 { mix-blend-mode: multiply;fill: url(#g1) } 
		.s3 { fill: #032d4c } 
		.s4 { mix-blend-mode: screen;fill: url(#g2) } 
		.s5 { mix-blend-mode: multiply;fill: url(#g3) } 
		.s6 { fill: #40bad5 } 
		.s7 { fill: #fcbf1e } 
		.s8 { mix-blend-mode: multiply;fill: url(#g4) } 
		.s9 { fill: #dd7824 } 
		.s10 { fill: #f99121 } 
		.s11 { fill: #f7d079 } 
		.s12 { fill: #035aa6 } 
		.s13 { mix-blend-mode: multiply;fill: #fcbf1e } 
		.s14 { opacity: .5;mix-blend-mode: multiply;fill: #fcbf1e } 
		.s15 { mix-blend-mode: screen;fill: #fcbf1e } 
		.s16 { opacity: .5;mix-blend-mode: multiply;fill: #40bad5 } 
	</style>
	<g id="BACKGROUND">
		<g id="&lt;Group&gt;">
		</g>
	</g>
	<g id="OBJECTS">
		<g id="&lt;Group&gt;">
			<g id="&lt;Group&gt;" style="opacity: .8;mix-blend-mode: multiply">
			</g>
			<g id="&lt;Group&gt;">
				<path id="&lt;Path&gt;" class="s0" d="m-737.6-25.6h1596.6v1051.6h-1596.6z"/>
				<path id="&lt;Path&gt;" class="s1" d="m996.5 1183.3l-972.2 116.4c-69.3-296.4-13-549.6 289.6-798.5 262.9-216.3 292.1-537.2 288.2-699.2l268.6-16.3z"/>
				<g id="&lt;Group&gt;">
					<path id="&lt;Path&gt;" class="s2" d="m624.5 687.9c0 14.4-126.5 26.2-282.5 26.2-156.1 0-282.6-11.8-282.6-26.2 0-14.5 126.5-26.2 282.6-26.2 156 0 282.5 11.7 282.5 26.2z"/>
					<g id="&lt;Group&gt;">
						<g id="&lt;Group&gt;">
							<path id="&lt;Path&gt;" class="s3" d="m403.5 688h-95.7l8-82.6h79.7z"/>
							<path id="&lt;Path&gt;" class="s3" d="m540.1 640.6h-368.9c-4.7 0-8.6-3.9-8.6-8.7v-227.9c0-4.8 3.9-8.7 8.6-8.7h368.9c4.8 0 8.7 3.9 8.7 8.7v227.9c0 4.8-3.9 8.7-8.7 8.7z"/>
							<path id="&lt;Path&gt;" class="s4" d="m527.6 605.4h-343.9v-191.5h343.9z"/>
							<path id="&lt;Path&gt;" class="s0" d="m355.7 632.7c-5.5 0-9.9-4.4-9.9-9.9 0-5.5 4.4-9.9 9.9-9.9 5.5 0 9.9 4.4 9.9 9.9 0 5.5-4.4 9.9-9.9 9.9z"/>
							<path id="&lt;Path&gt;" class="s3" d="m355.7 630.5c-4.3 0-7.7-3.4-7.7-7.7 0-4.2 3.4-7.7 7.7-7.7 4.2 0 7.7 3.5 7.7 7.7 0 4.3-3.5 7.7-7.7 7.7z"/>
							<path id="&lt;Path&gt;" class="s5" d="m312.4 640.6h86.5l2.1 21.1h-90.6z"/>
							<path id="&lt;Path&gt;" class="s3" d="m273.5 691.6c0-0.1 0-0.2 0-0.4 0-6.8 5.5-12.3 12.3-12.3h143c6.8 0 12.3 5.5 12.3 12.3 0 0.2 0 0.3 0 0.4z"/>
							<g id="&lt;Group&gt;">
								<g id="&lt;Group&gt;">
									<path id="&lt;Path&gt;" class="s0" d="m323.4 557.9h-63.5c-2 0-3.6-1.6-3.6-3.6v-52.5c0-2 1.6-3.6 3.6-3.6h63.5c2 0 3.6 1.6 3.6 3.6v52.5c0 2-1.6 3.6-3.6 3.6z"/>
									<path id="&lt;Compound Path&gt;" fill-rule="evenodd" class="s0" d="m319.9 509.4h-56.4v-24.2c0-15.6 12.6-28.3 28.2-28.3 15.5 0 28.2 12.7 28.2 28.3zm-48.4-8.1h40.4v-16.1c0-11.2-9.1-20.2-20.2-20.2-11.2 0-20.2 9-20.2 20.2z"/>
									<path id="&lt;Path&gt;" class="s3" d="m295 530.1v9c0 1.8-1.5 3.3-3.3 3.3-1.8 0-3.3-1.5-3.3-3.3v-9c-3.1-1.3-5.2-4.3-5.2-7.9 0-4.7 3.8-8.5 8.5-8.5 4.7 0 8.5 3.8 8.5 8.5 0 3.6-2.2 6.6-5.2 7.9z"/>
								</g>
								<g id="&lt;Group&gt;">
									<path id="&lt;Path&gt;" class="s3" d="m405.7 523.1h-84.5c-5.1 0-9.3-4.2-9.3-9.4 0-5.1 4.2-9.3 9.3-9.3h84.5c5.1 0 9.3 4.2 9.3 9.3 0 5.2-4.2 9.4-9.3 9.4z"/>
									<path id="&lt;Path&gt;" class="s3" d="m405.7 546.7h-84.5c-5.1 0-9.3-4.2-9.3-9.3 0-5.2 4.2-9.4 9.3-9.4h84.5c5.1 0 9.3 4.2 9.3 9.4 0 5.1-4.2 9.3-9.3 9.3z"/>
									<g id="&lt;Group&gt;">
										<path id="&lt;Path&gt;" class="s6" d="m340.4 513.7c0 0.5-0.4 0.9-0.8 0.9h-1.5l1 1c0.4 0.4 0.4 0.9 0 1.2q-0.2 0.3-0.6 0.3-0.3 0-0.6-0.3l-1-1v1.5c0 0.5-0.4 0.8-0.9 0.8-0.5 0-0.9-0.3-0.9-0.8v-1.5l-1 1q-0.3 0.3-0.6 0.3-0.3 0-0.6-0.3c-0.3-0.3-0.3-0.8 0-1.2l1-1h-1.4c-0.5 0-0.9-0.4-0.9-0.9 0-0.5 0.4-0.8 0.9-0.8h1.4l-1-1.1c-0.3-0.3-0.3-0.9 0-1.2 0.3-0.3 0.9-0.3 1.2 0l1 1v-1.4c0-0.5 0.4-0.9 0.9-0.9 0.5 0 0.9 0.4 0.9 0.9v1.4l1-1c0.4-0.3 0.9-0.3 1.2 0 0.4 0.3 0.4 0.9 0 1.2l-1 1.1h1.5c0.4 0 0.8 0.3 0.8 0.8z"/>
										<path id="&lt;Path&gt;" class="s6" d="m351.4 513.7c0 0.5-0.4 0.9-0.9 0.9h-1.4l1 1c0.3 0.4 0.3 0.9 0 1.2q-0.3 0.3-0.6 0.3-0.3 0-0.6-0.3l-1.1-1v1.5c0 0.5-0.3 0.8-0.8 0.8-0.5 0-0.9-0.3-0.9-0.8v-1.5l-1 1q-0.3 0.3-0.6 0.3-0.4 0-0.6-0.3c-0.4-0.3-0.4-0.8 0-1.2l1-1h-1.5c-0.4 0-0.8-0.4-0.8-0.9 0-0.5 0.4-0.8 0.8-0.8h1.5l-1-1.1c-0.4-0.3-0.4-0.9 0-1.2 0.3-0.3 0.8-0.3 1.2 0l1 1v-1.4c0-0.5 0.4-0.9 0.9-0.9 0.5 0 0.8 0.4 0.8 0.9v1.4l1.1-1c0.3-0.3 0.9-0.3 1.2 0 0.3 0.3 0.3 0.9 0 1.2l-1 1.1h1.4c0.5 0 0.9 0.3 0.9 0.8z"/>
										<path id="&lt;Path&gt;" class="s6" d="m362.4 513.7c0 0.5-0.4 0.9-0.9 0.9h-1.5l1.1 1c0.3 0.4 0.3 0.9 0 1.2q-0.3 0.3-0.6 0.3-0.4 0-0.6-0.3l-1.1-1v1.5c0 0.5-0.4 0.8-0.8 0.8-0.5 0-0.9-0.3-0.9-0.8v-1.5l-1 1q-0.3 0.3-0.7 0.3-0.3 0-0.6-0.3c-0.3-0.3-0.3-0.8 0-1.2l1.1-1h-1.5c-0.5 0-0.9-0.4-0.9-0.9 0-0.5 0.4-0.8 0.9-0.8h1.5l-1.1-1.1c-0.3-0.3-0.3-0.9 0-1.2 0.4-0.3 0.9-0.3 1.3 0l1 1v-1.4c0-0.5 0.4-0.9 0.9-0.9 0.4 0 0.8 0.4 0.8 0.9v1.4l1.1-1c0.3-0.3 0.8-0.3 1.2 0 0.3 0.3 0.3 0.9 0 1.2l-1.1 1.1h1.5c0.5 0 0.9 0.3 0.9 0.8z"/>
										<path id="&lt;Path&gt;" class="s6" d="m373.4 513.7c0 0.5-0.4 0.9-0.9 0.9h-1.5l1.1 1c0.3 0.4 0.3 0.9 0 1.2q-0.3 0.3-0.7 0.3-0.3 0-0.6-0.3l-1-1v1.5c0 0.5-0.4 0.8-0.9 0.8-0.4 0-0.8-0.3-0.8-0.8v-1.5l-1.1 1q-0.2 0.3-0.6 0.3-0.3 0-0.6-0.3c-0.3-0.3-0.3-0.8 0-1.2l1.1-1h-1.5c-0.5 0-0.9-0.4-0.9-0.9 0-0.5 0.4-0.8 0.9-0.8h1.5l-1.1-1.1c-0.3-0.3-0.3-0.9 0-1.2 0.3-0.3 0.9-0.3 1.2 0l1.1 1v-1.4c0-0.5 0.4-0.9 0.8-0.9 0.5 0 0.9 0.4 0.9 0.9v1.4l1-1c0.4-0.3 0.9-0.3 1.3 0 0.3 0.3 0.3 0.9 0 1.2l-1.1 1.1h1.5c0.5 0 0.9 0.3 0.9 0.8z"/>
										<path id="&lt;Path&gt;" class="s6" d="m384.3 513.7c0 0.5-0.4 0.9-0.8 0.9h-1.5l1 1c0.4 0.4 0.4 0.9 0 1.2q-0.2 0.3-0.6 0.3-0.3 0-0.6-0.3l-1-1v1.5c0 0.5-0.4 0.8-0.9 0.8-0.5 0-0.9-0.3-0.9-0.8v-1.5l-1 1q-0.3 0.3-0.6 0.3-0.3 0-0.6-0.3c-0.3-0.3-0.3-0.8 0-1.2l1-1h-1.4c-0.5 0-0.9-0.4-0.9-0.9 0-0.5 0.4-0.8 0.9-0.8h1.4l-1-1.1c-0.3-0.3-0.3-0.9 0-1.2 0.3-0.3 0.9-0.3 1.2 0l1 1v-1.4c0-0.5 0.4-0.9 0.9-0.9 0.5 0 0.9 0.4 0.9 0.9v1.4l1-1c0.3-0.3 0.9-0.3 1.2 0 0.4 0.3 0.4 0.9 0 1.2l-1 1.1h1.5c0.4 0 0.8 0.3 0.8 0.8z"/>
										<path id="&lt;Path&gt;" class="s6" d="m395.3 513.7c0 0.5-0.4 0.9-0.9 0.9h-1.4l1 1c0.3 0.4 0.3 0.9 0 1.2q-0.3 0.3-0.6 0.3-0.3 0-0.6-0.3l-1.1-1v1.5c0 0.5-0.3 0.8-0.8 0.8-0.5 0-0.9-0.3-0.9-0.8v-1.5l-1 1q-0.3 0.3-0.6 0.3-0.4 0-0.6-0.3c-0.4-0.3-0.4-0.8 0-1.2l1-1h-1.5c-0.4 0-0.8-0.4-0.8-0.9 0-0.5 0.4-0.8 0.8-0.8h1.5l-1-1.1c-0.4-0.3-0.4-0.9 0-1.2 0.3-0.3 0.8-0.3 1.2 0l1 1v-1.4c0-0.5 0.4-0.9 0.9-0.9 0.5 0 0.8 0.4 0.8 0.9v1.4l1.1-1c0.3-0.3 0.9-0.3 1.2 0 0.3 0.3 0.3 0.9 0 1.2l-1 1.1h1.4c0.5 0 0.9 0.3 0.9 0.8z"/>
									</g>
								</g>
							</g>
						</g>
						<g id="&lt;Group&gt;">
							<path id="&lt;Path&gt;" class="s7" d="m503 443.5c8.1 2.6 27.2 6.9 52.9 0.3 3.3-0.8 6.6 1.6 6.6 5v56c0 25.5-11.7 49.8-31.9 65.8-10 7.9-21.2 14-31.7 14-11.1 0-22.8-6.7-33.1-15.1-19.5-15.9-30.5-39.8-30.5-64.7v-56c0-3.4 3.2-5.8 6.5-5 25.7 6.6 44.8 2.3 52.9-0.3 2.7-0.9 5.6-0.9 8.3 0z"/>
							<path id="&lt;Path&gt;" class="s6" d="m498.9 570.7c-6.1 0-14.6-4.2-24.1-11.9-16.1-13.1-25.4-32.8-25.4-54v-45.2c6.5 1 12.9 1.6 19.3 1.6 13.5 0 23.8-2.4 30.2-4.5 6.3 2.1 16.7 4.5 30.2 4.5 6.3 0 12.8-0.6 19.2-1.6v45.2c0 21.5-9.7 41.6-26.6 54.9-9 7.1-17.1 11-22.8 11z"/>
							<path id="&lt;Path&gt;" class="s8" d="m498.9 570.7v-114c6.3 2.1 16.7 4.5 30.2 4.5 6.3 0 12.8-0.6 19.2-1.6v45.2c0 21.5-9.7 41.6-26.6 54.9-9 7.1-17.1 11-22.8 11z"/>
							<path id="&lt;Path&gt;" class="s0" d="m494.5 536.8c-1.4 0-2.8-0.5-3.9-1.4l-17.6-17.5c-2.4-2.2-2.6-5.9-0.5-8.3 2.2-2.4 5.9-2.6 8.3-0.5l12.6 13.2 24.7-35.5c1.9-2.6 5.5-3.3 8.2-1.4 2.6 1.8 3.3 5.5 1.4 8.1l-28.4 40.8c-1 1.4-2.5 2.3-4.1 2.5q-0.4 0-0.7 0z"/>
						</g>
						<g id="&lt;Group&gt;">
							<g id="&lt;Group&gt;">
								<path id="&lt;Path&gt;" class="s9" d="m180.3 504.4h-72.2l9.1-48.3h72.2z"/>
								<path id="&lt;Path&gt;" class="s9" d="m137.9 456.1h-20.7l1-5.6h17.4z"/>
							</g>
							<g id="&lt;Group&gt;">
								<path id="&lt;Path&gt;" class="s10" d="m179 504.4h-72.3l9.1-48.3h72.3z"/>
								<path id="&lt;Path&gt;" class="s10" d="m136.6 456.1h-20.8l1.1-5.6h17.4z"/>
							</g>
							<g id="&lt;Group&gt;">
								<path id="&lt;Path&gt;" class="s11" d="m180.3 504.4h-72.3l-2.9-48.3h72.2z"/>
								<path id="&lt;Path&gt;" class="s11" d="m125.8 456.1h-20.7l-0.4-5.6h17.4z"/>
							</g>
							<g id="&lt;Group&gt;">
								<path id="&lt;Path&gt;" class="s7" d="m178.7 504.4h-72.2l-2.9-48.3h72.2z"/>
								<path id="&lt;Path&gt;" class="s7" d="m124.3 456.1h-20.7l-0.4-5.6h17.4z"/>
							</g>
						</g>
						<g id="&lt;Group&gt;">
							<path id="&lt;Compound Path&gt;" fill-rule="evenodd" class="s12" d="m119.7 476v19.2c0 0.7-0.6 1.3-1.4 1.3h-23.2c-0.7 0-1.3-0.6-1.3-1.3v-19.2c0-0.7 0.6-1.3 1.3-1.3h1.3v-4.8c0-5.7 4.6-10.3 10.3-10.3 5.7 0 10.3 4.6 10.3 10.3v4.8h1.3c0.8 0 1.4 0.6 1.4 1.3zm-20.4-1.3h14.8v-4.8c0-4.1-3.3-7.4-7.4-7.4-4.1 0-7.4 3.3-7.4 7.4z"/>
							<path id="&lt;Path&gt;" class="s0" d="m107.9 486.4v3.3c0 0.6-0.5 1.2-1.2 1.2-0.6 0-1.2-0.6-1.2-1.2v-3.3c-1.1-0.5-1.9-1.6-1.9-2.9 0-1.7 1.4-3.1 3.1-3.1 1.7 0 3.1 1.4 3.1 3.1 0 1.3-0.8 2.4-1.9 2.9z"/>
						</g>
						<g id="&lt;Group&gt;">
							<g id="&lt;Group&gt;">
								<g id="&lt;Group&gt;">
									<path id="&lt;Path&gt;" class="s9" d="m401.7 442.7h-72.3l9.1-48.3h72.3z"/>
									<path id="&lt;Path&gt;" class="s9" d="m359.3 394.4h-20.8l1.1-5.6h17.4z"/>
								</g>
								<g id="&lt;Group&gt;">
									<path id="&lt;Path&gt;" class="s10" d="m400.3 442.7h-72.2l9.1-48.3h72.2z"/>
									<path id="&lt;Path&gt;" class="s10" d="m358 394.4h-20.8l1-5.6h17.4z"/>
								</g>
								<g id="&lt;Group&gt;">
									<path id="&lt;Path&gt;" class="s11" d="m401.6 442.7h-72.2l-3-48.3h72.3z"/>
									<path id="&lt;Path&gt;" class="s11" d="m347.2 394.4h-20.8l-0.3-5.6h17.4z"/>
								</g>
								<g id="&lt;Group&gt;">
									<path id="&lt;Path&gt;" class="s7" d="m400.1 442.7h-72.3l-2.9-48.3h72.3z"/>
									<path id="&lt;Path&gt;" class="s7" d="m345.7 394.4h-20.8l-0.3-5.6h17.4z"/>
								</g>
							</g>
							<g id="&lt;Group&gt;">
								<path id="&lt;Path&gt;" class="s0" d="m336.5 434.3h-23.2c-0.7 0-1.3-0.6-1.3-1.3v-19.3c0-0.7 0.6-1.3 1.3-1.3h23.2c0.8 0 1.4 0.6 1.4 1.3v19.3c0 0.7-0.6 1.3-1.4 1.3z"/>
								<path id="&lt;Compound Path&gt;" fill-rule="evenodd" class="s0" d="m335.2 416.5h-20.6v-8.8c0-5.7 4.6-10.4 10.3-10.4 5.7 0 10.3 4.7 10.3 10.4zm-17.7-3h14.8v-5.9c0-4.1-3.3-7.4-7.4-7.4-4.1 0-7.4 3.3-7.4 7.4z"/>
								<path id="&lt;Path&gt;" class="s3" d="m326.1 424.1v3.3c0 0.7-0.5 1.2-1.2 1.2-0.6 0-1.2-0.5-1.2-1.2v-3.3c-1.1-0.5-1.9-1.6-1.9-2.9 0-1.7 1.4-3.1 3.1-3.1 1.7 0 3.1 1.4 3.1 3.1 0 1.3-0.8 2.4-1.9 2.9z"/>
							</g>
						</g>
						<g id="&lt;Group&gt;">
							<path id="&lt;Path&gt;" class="s7" d="m243.6 599.8l-81.6 50.2-10.7-17.5 81.6-50.2c4.8-2.9 11.1-1.4 14.1 3.4 3 4.8 1.4 11.2-3.4 14.1z"/>
							<path id="&lt;Path&gt;" class="s13" d="m239.2 594.7l-80.7 49.6-3.7-6.1 80.6-49.6c1.7-1 3.9-0.5 5 1.2 1 1.7 0.5 3.9-1.2 4.9z"/>
							<path id="&lt;Compound Path&gt;" fill-rule="evenodd" class="s7" d="m181.5 625.9c10.4 16.9 5.2 39.1-11.8 49.5-16.9 10.4-39 5.1-49.4-11.8-10.4-16.9-5.1-39.1 11.8-49.5 16.9-10.4 39-5.1 49.4 11.8zm-41.9 18.1c-3.1 1.9-4.1 6-2.2 9.1 1.9 3.1 6 4.1 9.1 2.1 3.1-1.9 4.1-6 2.2-9-1.9-3.2-6-4.2-9.1-2.2z"/>
							<path id="&lt;Compound Path&gt;" fill-rule="evenodd" class="s13" d="m171.8 631.9c7.1 11.5 3.5 26.6-8.1 33.7-11.5 7.1-26.6 3.5-33.6-8-7.1-11.5-3.5-26.6 8-33.7 11.5-7.1 26.6-3.5 33.7 8zm-23.1 14.3c-1.9-3.2-6-4.2-9.1-2.2-3.1 1.9-4.1 6-2.2 9.1 1.9 3.1 6 4.1 9.1 2.1 3.1-1.9 4.1-6 2.2-9z"/>
							<path id="&lt;Compound Path&gt;" fill-rule="evenodd" class="s14" d="m171.8 631.9c7.1 11.5 3.5 26.6-8.1 33.7-11.5 7.1-26.6 3.5-33.6-8-7.1-11.5-3.5-26.6 8-33.7 11.5-7.1 26.6-3.5 33.7 8zm-2.2 1.4c-6.3-10.4-19.8-13.6-30.2-7.3-10.3 6.4-13.5 19.9-7.2 30.3 6.4 10.3 19.9 13.5 30.2 7.2 10.4-6.4 13.6-19.9 7.2-30.2z"/>
							<path id="&lt;Path&gt;" class="s7" d="m223.4 624.1c-2.2 1.4-5 0.7-6.4-1.5l-5.4-8.9 7.9-4.8 5.5 8.8c1.3 2.2 0.6 5.1-1.6 6.4z"/>
							<path id="&lt;Path&gt;" class="s7" d="m244 611.5c-2.2 1.3-5.1 0.6-6.4-1.6l-5.5-8.8 8-4.9 5.4 8.9c1.4 2.2 0.7 5-1.5 6.4z"/>
							<path id="&lt;Path&gt;" class="s7" d="m236.9 621.8c-2.2 1.4-5 0.7-6.4-1.5l-8.1-13.2 7.9-4.9 8.2 13.2c1.3 2.2 0.6 5.1-1.6 6.4z"/>
							<path id="&lt;Path&gt;" class="s15" d="m182.1 618.6l-0.9 0.6c-0.7 0.4-1.6 0.2-2-0.5-0.4-0.7-0.2-1.5 0.5-1.9l1-0.6c0.6-0.4 1.5-0.2 1.9 0.4 0.4 0.7 0.2 1.6-0.5 2z"/>
							<path id="&lt;Path&gt;" class="s15" d="m193.6 611.5l-8.5 5.2c-0.6 0.4-1.5 0.2-1.9-0.4-0.4-0.7-0.2-1.6 0.5-2l8.5-5.2c0.6-0.4 1.5-0.2 1.9 0.5 0.4 0.6 0.2 1.5-0.5 1.9z"/>
						</g>
						<g id="&lt;Group&gt;">
							<path id="&lt;Compound Path&gt;" fill-rule="evenodd" class="s12" d="m133 398.6v6c0 1.5-0.9 2.8-2.3 3.4l-4.6 1.9q-0.4 1-0.8 2l1.9 4.5c0.6 1.4 0.3 3-0.8 4.1l-4.3 4.3c-1 1-2.6 1.3-4 0.7l-4.6-1.9q-1 0.5-2 0.8l-1.8 4.6c-0.6 1.4-2 2.4-3.5 2.4h-6c-1.5 0-2.9-1-3.4-2.4l-1.9-4.6q-1-0.3-2-0.8l-4.6 1.9c-1.3 0.6-3 0.3-4-0.7l-4.3-4.3c-1-1.1-1.4-2.7-0.8-4.1l2-4.5q-0.5-1-0.9-2l-4.6-1.9c-1.4-0.6-2.3-1.9-2.3-3.4v-6c0-1.6 0.9-2.9 2.3-3.5l4.6-1.8q0.4-1.1 0.9-2l-2-4.6c-0.6-1.4-0.2-3 0.8-4.1l4.3-4.2c1-1.1 2.7-1.4 4-0.8l4.6 1.9q1-0.4 2-0.8l1.9-4.6c0.5-1.4 1.9-2.3 3.4-2.3h6c1.5 0 2.9 0.9 3.5 2.3l1.8 4.6q1 0.4 2 0.8l4.6-1.9c1.4-0.6 3-0.3 4 0.8l4.3 4.2c1.1 1.1 1.4 2.7 0.8 4.1l-1.9 4.6q0.4 0.9 0.8 2l4.6 1.8c1.4 0.6 2.3 1.9 2.3 3.5zm-15.5 3c0-7.9-6.4-14.3-14.3-14.3-7.9 0-14.2 6.4-14.2 14.3 0 7.8 6.3 14.2 14.2 14.2 7.9 0 14.3-6.4 14.3-14.2z"/>
							<path id="&lt;Compound Path&gt;" fill-rule="evenodd" class="s16" d="m120.1 401.6c0 9.3-7.6 16.8-16.9 16.8-9.3 0-16.9-7.5-16.9-16.8 0-9.4 7.6-16.9 16.9-16.9 9.3 0 16.9 7.5 16.9 16.9zm-2.6 0c0-7.9-6.4-14.3-14.3-14.3-7.9 0-14.2 6.4-14.2 14.3 0 7.8 6.3 14.2 14.2 14.2 7.9 0 14.3-6.4 14.3-14.2z"/>
							<path id="&lt;Path&gt;" class="s12" d="m103.2 410.5c-4.9 0-8.9-4-8.9-8.9 0-5 4-9 8.9-9 4.9 0 9 4 9 9 0 4.9-4.1 8.9-9 8.9z"/>
							<path id="&lt;Path&gt;" class="s0" d="m105.3 403.6c-0.3 2.3-1.1 3.9-2.1 3.9-0.9 0-1.7-1.6-2-3.9-2.3-0.3-3.9-1.1-3.9-2 0-1 1.6-1.8 3.9-2.1 0.3-2.3 1.1-3.9 2-3.9 1 0 1.8 1.6 2.1 3.9 2.2 0.3 3.9 1.1 3.9 2.1 0 0.9-1.7 1.7-3.9 2z"/>
						</g>
						<g id="&lt;Group&gt;">
							<path id="&lt;Compound Path&gt;" fill-rule="evenodd" class="s0" d="m592.2 398.6v6c0 1.5-0.9 2.8-2.3 3.4l-4.6 1.9q-0.3 1-0.8 2l1.9 4.5c0.6 1.4 0.3 3-0.8 4.1l-4.2 4.3c-1.1 1-2.7 1.3-4.1 0.7l-4.5-1.9q-1 0.5-2 0.8l-1.9 4.6c-0.6 1.4-1.9 2.4-3.4 2.4h-6.1c-1.5 0-2.8-1-3.4-2.4l-1.8-4.6q-1.1-0.3-2.1-0.8l-4.5 1.9c-1.4 0.6-3 0.3-4.1-0.7l-4.2-4.3c-1.1-1.1-1.4-2.7-0.8-4.1l1.9-4.5q-0.4-1-0.8-2l-4.6-1.9c-1.4-0.6-2.3-1.9-2.3-3.4v-6c0-1.6 0.9-2.9 2.3-3.5l4.6-1.8q0.4-1.1 0.8-2l-1.9-4.6c-0.6-1.4-0.3-3 0.8-4.1l4.2-4.2c1.1-1.1 2.7-1.4 4.1-0.8l4.5 1.9q1-0.4 2.1-0.8l1.8-4.6c0.6-1.4 1.9-2.3 3.4-2.3h6.1c1.5 0 2.8 0.9 3.4 2.3l1.9 4.6q1 0.4 2 0.8l4.5-1.9c1.4-0.6 3-0.3 4.1 0.8l4.2 4.2c1.1 1.1 1.4 2.7 0.8 4.1l-1.9 4.6q0.5 0.9 0.8 2l4.6 1.8c1.4 0.6 2.3 1.9 2.3 3.5zm-15.5 3c0-7.9-6.4-14.3-14.2-14.3-7.9 0-14.3 6.4-14.3 14.3 0 7.8 6.4 14.2 14.3 14.2 7.8 0 14.2-6.4 14.2-14.2z"/>
							<path id="&lt;Compound Path&gt;" fill-rule="evenodd" class="s16" d="m579.3 401.6c0 9.3-7.5 16.8-16.8 16.8-9.4 0-16.9-7.5-16.9-16.8 0-9.4 7.5-16.9 16.9-16.9 9.3 0 16.8 7.5 16.8 16.9zm-2.6 0c0-7.9-6.4-14.3-14.2-14.3-7.9 0-14.3 6.4-14.3 14.3 0 7.8 6.4 14.2 14.3 14.2 7.8 0 14.2-6.4 14.2-14.2z"/>
							<path id="&lt;Path&gt;" class="s0" d="m562.5 410.5c-5 0-9-4-9-8.9 0-5 4-9 9-9 4.9 0 8.9 4 8.9 9 0 4.9-4 8.9-8.9 8.9z"/>
							<path id="&lt;Path&gt;" class="s16" d="m564.5 403.6c-0.3 2.3-1.1 3.9-2 3.9-1 0-1.8-1.6-2.1-3.9-2.3-0.3-3.9-1.1-3.9-2 0-1 1.6-1.8 3.9-2.1 0.3-2.3 1.1-3.9 2.1-3.9 0.9 0 1.7 1.6 2 3.9 2.3 0.3 3.9 1.1 3.9 2.1 0 0.9-1.6 1.7-3.9 2z"/>
						</g>
						<g id="&lt;Group&gt;">
							<path id="&lt;Compound Path&gt;" fill-rule="evenodd" class="s0" d="m598.2 526.1v6.1c0 1.5-0.9 2.8-2.3 3.4l-4.6 1.8q-0.4 1.1-0.8 2l1.9 4.6c0.6 1.4 0.3 3-0.8 4.1l-4.3 4.2c-1 1.1-2.6 1.4-4 0.8l-4.6-1.9q-1 0.4-2 0.8l-1.8 4.6c-0.6 1.4-2 2.3-3.5 2.3h-6c-1.5 0-2.9-0.9-3.4-2.3l-1.9-4.6q-1-0.4-2-0.8l-4.6 1.9c-1.3 0.6-3 0.3-4-0.8l-4.3-4.2c-1.1-1.1-1.4-2.7-0.8-4.1l2-4.6q-0.5-0.9-0.9-2l-4.6-1.8c-1.4-0.6-2.3-1.9-2.3-3.4v-6.1c0-1.5 0.9-2.8 2.3-3.4l4.6-1.9q0.4-1 0.9-2l-2-4.5c-0.6-1.4-0.3-3 0.8-4.1l4.3-4.2c1-1.1 2.7-1.4 4-0.8l4.6 1.9q1-0.5 2-0.8l1.9-4.6c0.5-1.4 1.9-2.3 3.4-2.3h6c1.5 0 2.9 0.9 3.5 2.3l1.8 4.6q1 0.3 2 0.8l4.6-1.9c1.4-0.6 3-0.3 4 0.8l4.3 4.2c1.1 1.1 1.4 2.7 0.8 4.1l-1.9 4.5q0.4 1 0.8 2l4.6 1.9c1.4 0.6 2.3 1.9 2.3 3.4zm-15.6 3c0-7.8-6.3-14.2-14.2-14.2-7.9 0-14.2 6.4-14.2 14.2 0 7.9 6.3 14.3 14.2 14.3 7.9 0 14.2-6.4 14.2-14.3z"/>
							<path id="&lt;Compound Path&gt;" fill-rule="evenodd" class="s16" d="m585.3 529.1c0 9.4-7.6 16.9-16.9 16.9-9.3 0-16.9-7.5-16.9-16.9 0-9.3 7.6-16.8 16.9-16.8 9.3 0 16.9 7.5 16.9 16.8zm-2.7 0c0-7.8-6.3-14.2-14.2-14.2-7.9 0-14.2 6.4-14.2 14.2 0 7.9 6.3 14.3 14.2 14.3 7.9 0 14.2-6.4 14.2-14.3z"/>
							<path id="&lt;Path&gt;" class="s0" d="m568.4 538.1c-4.9 0-8.9-4-8.9-9 0-4.9 4-8.9 8.9-8.9 4.9 0 8.9 4 8.9 8.9 0 5-4 9-8.9 9z"/>
							<path id="&lt;Path&gt;" class="s16" d="m570.5 531.2c-0.3 2.3-1.1 3.9-2.1 3.9-0.9 0-1.7-1.6-2-3.9-2.3-0.3-3.9-1.1-3.9-2.1 0-0.9 1.6-1.7 3.9-2 0.3-2.3 1.1-3.9 2-3.9 1 0 1.8 1.6 2.1 3.9 2.2 0.3 3.9 1.1 3.9 2 0 1-1.7 1.8-3.9 2.1z"/>
						</g>
						<g id="&lt;Group&gt;">
							<path id="&lt;Compound Path&gt;" fill-rule="evenodd" class="s12" d="m184.1 334.9v8c0 2-1.3 3.8-3.1 4.6l-6.2 2.5q-0.5 1.3-1.1 2.6l2.6 6.1c0.8 1.9 0.4 4-1 5.5l-5.7 5.7c-1.5 1.4-3.6 1.8-5.5 1l-6.1-2.6q-1.3 0.6-2.6 1.1l-2.5 6.2c-0.8 1.8-2.6 3.1-4.6 3.1h-8c-2.1 0-3.9-1.3-4.6-3.1l-2.5-6.2q-1.4-0.5-2.7-1.1l-6.1 2.6c-1.8 0.8-4 0.4-5.4-1l-5.7-5.7c-1.4-1.5-1.8-3.6-1.1-5.5l2.6-6.1q-0.6-1.3-1.1-2.6l-6.1-2.5c-1.9-0.8-3.1-2.6-3.1-4.6v-8c0-2.1 1.2-3.9 3.1-4.6l6.1-2.5q0.5-1.4 1.1-2.7l-2.6-6.1c-0.7-1.8-0.3-4 1.1-5.4l5.7-5.7c1.4-1.4 3.6-1.8 5.4-1.1l6.1 2.6q1.3-0.6 2.7-1.1l2.5-6.1c0.7-1.9 2.5-3.1 4.6-3.1h8c2 0 3.8 1.2 4.6 3.1l2.5 6.1q1.3 0.5 2.6 1.1l6.1-2.6c1.9-0.7 4-0.3 5.5 1.1l5.7 5.7c1.4 1.4 1.8 3.6 1 5.4l-2.6 6.1q0.6 1.3 1.1 2.7l6.2 2.5c1.8 0.7 3.1 2.5 3.1 4.6zm-20.8 4c0-10.5-8.5-19-19-19-10.5 0-19 8.5-19 19 0 10.5 8.5 19 19 19 10.5 0 19-8.5 19-19z"/>
							<path id="&lt;Compound Path&gt;" fill-rule="evenodd" class="s16" d="m166.8 338.9c0 12.4-10.1 22.5-22.5 22.5-12.5 0-22.6-10.1-22.6-22.5 0-12.5 10.1-22.6 22.6-22.6 12.4 0 22.5 10.1 22.5 22.6zm-3.5 0c0-10.5-8.5-19-19-19-10.5 0-19 8.5-19 19 0 10.5 8.5 19 19 19 10.5 0 19-8.5 19-19z"/>
							<path id="&lt;Path&gt;" class="s12" d="m144.3 350.8c-6.6 0-12-5.3-12-11.9 0-6.6 5.4-12 12-12 6.6 0 11.9 5.4 11.9 12 0 6.6-5.3 11.9-11.9 11.9z"/>
							<path id="&lt;Path&gt;" class="s0" d="m147 341.6c-0.4 3.1-1.5 5.2-2.7 5.2-1.3 0-2.3-2.1-2.8-5.2-3-0.4-5.2-1.5-5.2-2.7 0-1.3 2.2-2.4 5.2-2.8 0.5-3 1.5-5.2 2.8-5.2 1.2 0 2.3 2.2 2.7 5.2 3.1 0.4 5.2 1.5 5.2 2.8 0 1.2-2.1 2.3-5.2 2.7z"/>
						</g>
						<g id="&lt;Group&gt;">
							<path id="&lt;Compound Path&gt;" fill-rule="evenodd" class="s0" d="m648 460.9v8.1c0 2-1.2 3.8-3.1 4.6l-6.1 2.5q-0.5 1.3-1.2 2.6l2.6 6.1c0.8 1.9 0.4 4-1 5.5l-5.7 5.7c-1.4 1.4-3.6 1.8-5.4 1l-6.1-2.6q-1.3 0.6-2.7 1.1l-2.5 6.2c-0.7 1.8-2.6 3.1-4.6 3.1h-8c-2 0-3.9-1.3-4.6-3.1l-2.5-6.2q-1.4-0.5-2.7-1.1l-6.1 2.6c-1.8 0.8-4 0.4-5.4-1l-5.7-5.7c-1.4-1.5-1.8-3.6-1-5.5l2.6-6.1q-0.7-1.3-1.2-2.6l-6.1-2.5c-1.9-0.8-3.1-2.6-3.1-4.6v-8.1c0-2 1.2-3.8 3.1-4.5l6.1-2.5q0.5-1.4 1.2-2.7l-2.6-6.1c-0.8-1.8-0.4-4 1-5.4l5.7-5.7c1.4-1.4 3.6-1.9 5.4-1.1l6.1 2.6q1.3-0.6 2.7-1.1l2.5-6.1c0.7-1.9 2.6-3.1 4.6-3.1h8c2 0 3.9 1.2 4.6 3.1l2.5 6.1q1.4 0.5 2.7 1.1l6.1-2.6c1.8-0.8 4-0.3 5.4 1.1l5.7 5.7c1.4 1.4 1.8 3.6 1 5.4l-2.6 6.1q0.7 1.3 1.1 2.7l6.2 2.5c1.9 0.7 3.1 2.5 3.1 4.5zm-20.8 4.1c0-10.5-8.5-19-19-19-10.5 0-19 8.5-19 19 0 10.5 8.5 19 19 19 10.5 0 19-8.5 19-19z"/>
							<path id="&lt;Compound Path&gt;" fill-rule="evenodd" class="s16" d="m630.7 465c0 12.4-10.1 22.5-22.5 22.5-12.4 0-22.5-10.1-22.5-22.5 0-12.5 10.1-22.6 22.5-22.6 12.4 0 22.5 10.1 22.5 22.6zm-3.5 0c0-10.5-8.5-19-19-19-10.5 0-19 8.5-19 19 0 10.5 8.5 19 19 19 10.5 0 19-8.5 19-19z"/>
							<path id="&lt;Path&gt;" class="s0" d="m608.2 476.9c-6.6 0-11.9-5.3-11.9-11.9 0-6.6 5.3-12 11.9-12 6.6 0 11.9 5.4 11.9 12 0 6.6-5.3 11.9-11.9 11.9z"/>
							<path id="&lt;Path&gt;" class="s16" d="m610.9 467.7c-0.4 3-1.4 5.2-2.7 5.2-1.3 0-2.3-2.2-2.7-5.2-3.1-0.4-5.3-1.5-5.3-2.7 0-1.3 2.2-2.4 5.3-2.8 0.4-3 1.4-5.2 2.7-5.2 1.3 0 2.3 2.2 2.7 5.2 3.1 0.4 5.3 1.5 5.3 2.8 0 1.2-2.2 2.3-5.3 2.7z"/>
						</g>
						<g id="&lt;Group&gt;">
							<path id="&lt;Path&gt;" class="s0" d="m513.8 671.6q0-0.4 0-0.8c0-14 10.2-25.6 23.6-27.7q0-0.2 0-0.4c0-15.5 12.5-28 28-28 9.4 0 17.7 4.6 22.8 11.6 2.9-1.7 6.2-2.7 9.8-2.7 10.5 0 19.1 8.6 19.1 19.1q0 0.1 0 0.1 1.1-0.1 2.3-0.1c15.5 0 28 12.6 28 28.1q0 0.4 0 0.8z"/>
							<path id="&lt;Path&gt;" class="s1" d="m590.2 652.1h-6.3v19.5h-12.6v-19.5h-6.3l12.6-17.8z"/>
						</g>
						<g id="&lt;Group&gt;">
							<path id="&lt;Path&gt;" class="s0" d="m96.7 562.8h-4.4v13.6h-8.8v-13.6h-4.4l8.8-12.4z"/>
						</g>
						<g id="&lt;Group&gt;">
							<path id="&lt;Path&gt;" class="s12" d="m210.1 371.5q0-0.4 0-0.7c0-12.1 8.9-22.1 20.4-24q0-0.1 0-0.3c0-13.4 10.9-24.3 24.3-24.3 8.1 0 15.3 4 19.7 10.1 2.5-1.5 5.4-2.3 8.5-2.3 9.1 0 16.5 7.4 16.5 16.5q0 0 0 0.1 1-0.1 2-0.1c13.4 0 24.3 10.9 24.3 24.3q-0.1 0.3-0.1 0.7z"/>
							<path id="&lt;Path&gt;" class="s0" d="m278.8 354.6h-5.4v16.9h-10.9v-16.9h-5.5l10.9-15.4z"/>
						</g>
					</g>
				</g>
				<g id="&lt;Group&gt;">
				</g>
				<g id="&lt;Group&gt;">
					<g id="&lt;Group&gt;">
						<g id="&lt;Group&gt;">
						</g>
					</g>
					<g id="&lt;Group&gt;">
						<g id="&lt;Group&gt;">
							<g id="&lt;Group&gt;">
							</g>
						</g>
						<g id="&lt;Group&gt;">
						</g>
					</g>
				</g>
			</g>
		</g>
	</g>
</svg>